<?xml version="1.0" encoding="utf-8"?>
<!-- Generator: Adobe Illustrator 16.0.0, SVG Export Plug-In . SVG Version: 6.00 Build 0)  -->
<!DOCTYPE svg PUBLIC "-//W3C//DTD SVG 1.1//EN" "http://www.w3.org/Graphics/SVG/1.1/DTD/svg11.dtd">
<svg version="1.1" id="Layer_1" xmlns="http://www.w3.org/2000/svg" xmlns:xlink="http://www.w3.org/1999/xlink" x="0px" y="0px"
	 width="214px" height="72px" viewBox="0 0 214 72" enable-background="new 0 0 214 72" xml:space="preserve">
<g>
	<path fill="#333333" d="M15.727,14.875l12.207,12.202L23.4,10.341l2.01-0.54l8.275,26.223l0.197-0.047L27.83,9.181l2.01-0.54
		l4.531,16.763L38.799,8.77l1.984,0.411l-5.889,26.794l0.195,0.044l8.217-26.218l1.904,0.54l-4.428,16.736l12.229-12.202
		l1.572,1.363L35.975,36.543l0.154,0.145L56.281,18.04l1.366,1.466L45.52,31.817l16.658-4.404l0.619,1.776l-26.163,8.375
		l0.054,0.211l26.756-5.958l0.409,2.007l-16.632,4.428l16.527,4.428l-0.203,2.01l-26.849-5.907l-0.062,0.202l26.163,8.332
		l-0.619,1.779L45.52,44.564l12.128,12.332l-1.366,1.465l-20.16-18.495L35.97,40.01l18.614,20.26l-1.572,1.262L40.783,49.326
		l4.531,16.736l-2.008,0.539l-8.209-26.09l-0.201,0.059l5.988,26.753l-2.086,0.411L34.37,51.102l-4.53,16.532l-2.01-0.311
		l6.053-26.753l-0.201-0.059l-8.17,26.193L23.4,66.164l4.533-16.838L15.727,61.635l-1.699-1.469l18.76-20.156l-0.141-0.144
		L12.252,58.361l-1.16-1.465l12.104-12.332L6.562,48.991l-0.646-1.777l26.229-8.229c0,0-0.06-0.193-0.049-0.202
		c0.004-0.007-26.9,6.011-26.9,6.011l-0.438-1.902l16.867-4.639L4.861,33.617l0.334-1.904l26.89,6.057l0.06-0.205L5.815,29.19
		l0.644-1.776l16.738,4.404L11.092,19.506l1.262-1.466l20.293,18.651l0.151-0.159L14.131,16.238L15.727,14.875z"/>
	<g>
		<path fill="#333333" d="M73.142,65.521c0,1.073-0.02,1.807-0.077,2.651c0.213-0.021,0.47-0.049,0.786-0.049
			c0.498,0,1.148,0.049,2.104,0.049c1.803,0,3.314-1.388,3.314-3.495c0-2.412-1.503-3.113-3.688-3.113
			c-0.842,0-1.311,0.053-1.731,0.053c-0.316,0-0.573-0.031-0.786-0.053c0.058,0.848,0.077,1.582,0.077,2.655L73.142,65.521
			L73.142,65.521z M74.557,64.029c0-0.519,0-1.688,0.013-1.867c0.295-0.029,0.536-0.047,0.992-0.047
			c1.324,0,2.196,0.974,2.196,2.546c0,1.989-0.91,2.966-2.347,2.966c-0.395,0-0.65-0.018-0.842-0.025
			c-0.013-0.185-0.013-1.354-0.013-1.869L74.557,64.029L74.557,64.029z"/>
		<path fill="#333333" d="M80.906,65.521c0,1.073-0.019,1.807-0.078,2.651c0.215-0.021,0.472-0.049,2.03-0.049
			c0.881,0,1.333,0.038,1.676,0.049c-0.016-0.114-0.038-0.213-0.038-0.411c0-0.201,0.022-0.297,0.038-0.435
			c-0.737,0.089-1.472,0.126-2.194,0.126c-0.018-0.383-0.026-0.792-0.026-1.197c0-0.41,0.009-0.824,0.009-1.225
			c0.727,0,1.448,0.031,2.174,0.087c-0.028-0.202-0.048-0.286-0.048-0.392c0-0.125,0.009-0.211,0.048-0.433
			c-0.726,0.039-1.341,0.058-2.174,0.077c0-0.699,0-1.391,0.049-2.088c0.288,0,1.435,0.066,2.163,0.115
			c-0.016-0.145-0.038-0.229-0.038-0.433c0-0.173,0.022-0.284,0.038-0.403c-0.26,0.027-1.061,0.053-1.999,0.053
			c-0.567,0-1.142-0.038-1.707-0.053c0.06,0.848,0.078,1.582,0.078,2.655L80.906,65.521L80.906,65.521z"/>
		<path fill="#333333" d="M93.58,65.521c0,1.073-0.021,1.807-0.078,2.651c0.21-0.021,0.47-0.049,0.786-0.049
			s0.573,0.028,0.786,0.049c-0.058-0.846-0.08-1.578-0.08-2.651V64.22c0-1.073,0.022-1.809,0.08-2.655
			c-0.213,0.021-0.47,0.053-0.786,0.053s-0.576-0.031-0.786-0.053C93.56,62.4,93.58,63.141,93.58,64.2
			c-0.366,0.009-0.769,0.021-1.446,0.021c-0.682,0-1.14-0.012-1.466-0.021c0-1.062,0.018-1.8,0.076-2.636
			c-0.208,0.021-0.47,0.053-0.784,0.053c-0.318,0-0.575-0.031-0.786-0.053c0.056,0.848,0.078,1.582,0.078,2.655v1.302
			c0,1.073-0.022,1.807-0.078,2.651c0.211-0.021,0.468-0.049,0.786-0.049c0.314,0,0.576,0.028,0.784,0.049
			c-0.059-0.846-0.076-1.578-0.076-2.651v-0.549c0.487-0.016,0.979-0.035,1.457-0.035c0.487,0,0.966,0.028,1.455,0.035V65.521z"/>
		<path fill="#333333" d="M100.021,68.298c1.857,0,2.825-0.919,2.825-3.139c0-1.656,0.068-3.026,0.122-3.595
			c-0.159,0.027-0.312,0.053-0.477,0.053c-0.161,0-0.325-0.024-0.487-0.053c0.047,0.883,0.076,1.752,0.076,2.636
			c0,1.782-0.106,3.438-1.639,3.438c-1.244,0-1.915-0.384-1.915-2.722c0-1.11,0.009-2.104,0.133-3.353
			c-0.257,0.027-0.524,0.053-0.783,0.053c-0.257,0-0.525-0.024-0.786-0.053c0.02,0.319,0.04,0.957,0.04,1.976
			c0,0.688-0.021,1.205-0.021,2.241C97.11,67.58,98.386,68.298,100.021,68.298z"/>
		<path fill="#333333" d="M105.735,63.828c0.722,1.441,1.411,2.898,2.09,4.346c0.058-0.011,0.124-0.021,0.182-0.021
			c0.056,0,0.124,0.011,0.183,0.021c0.688-1.482,1.396-2.959,2.115-4.439h0.019c0.155,1.48,0.315,3.106,0.386,4.439
			c0.27-0.025,0.535-0.049,0.792-0.049c0.263,0,0.519,0.021,0.774,0.049c-0.238-1.351-0.57-4.402-0.82-6.607
			c-0.135,0.026-0.268,0.052-0.403,0.052c-0.135,0-0.276-0.024-0.411-0.052c-0.689,1.522-1.473,3.15-2.229,4.578
			c-0.7-1.351-1.515-3.056-2.214-4.578c-0.125,0.026-0.257,0.052-0.384,0.052c-0.132,0-0.257-0.024-0.391-0.052
			c-0.269,2.205-0.585,4.406-0.987,6.607c0.154-0.025,0.298-0.049,0.451-0.049c0.144,0,0.297,0.021,0.451,0.049
			c0.094-1.447,0.18-2.904,0.381-4.346H105.735z"/>
		<path fill="#333333" d="M116.605,61.521c-0.125,0.016-0.239,0.043-0.365,0.043c-0.122,0-0.241-0.027-0.363-0.043
			c-0.822,2.181-2.261,5.59-2.729,6.651c0.184-0.021,0.326-0.049,0.478-0.049c0.155,0,0.297,0.028,0.452,0.049
			c0.182-0.659,0.393-1.312,0.648-1.963c0.336-0.012,0.662-0.021,0.998-0.021c0.409,0,0.814,0.009,1.225,0.021
			c0.24,0.649,0.461,1.312,0.662,1.963c0.266-0.021,0.543-0.049,0.814-0.049c0.266,0,0.535,0.028,0.842,0.049
			C118.538,66.613,117.42,63.702,116.605,61.521z M114.977,65.648c0.278-0.777,0.575-1.535,0.9-2.281
			c0.309,0.746,0.573,1.504,0.854,2.281H114.977z"/>
		<path fill="#333333" d="M120.741,63.475c0,1.952-0.144,4.424-0.191,4.699c0.146-0.025,0.298-0.049,0.441-0.049
			s0.296,0.021,0.448,0.049c-0.028-0.354-0.058-0.89-0.058-2.422c0-0.72,0-1.514,0.019-2.232c1.477,1.549,2.875,3.104,4.185,4.654
			c0.114-0.025,0.243-0.049,0.376-0.049s0.257,0.021,0.391,0.049c0-2.546,0-3.82,0.154-6.607c-0.145,0.026-0.288,0.052-0.432,0.052
			c-0.145,0-0.286-0.024-0.432-0.052c0.067,0.433,0.067,3.037,0.067,4.561c-1.405-1.523-2.778-3.037-4.155-4.561
			c-0.145,0.026-0.287,0.052-0.433,0.052c-0.144,0-0.285-0.024-0.429-0.052C120.7,62.025,120.741,62.609,120.741,63.475z"/>
		<path fill="#333333" d="M128.545,65.521c0,1.073-0.021,1.807-0.078,2.651c0.21-0.021,0.469-0.049,0.786-0.049
			c0.315,0,0.573,0.028,0.783,0.049c-0.056-0.846-0.072-1.578-0.072-2.651V64.22c0-1.073,0.019-1.809,0.072-2.655
			c-0.21,0.021-0.468,0.053-0.783,0.053c-0.317,0-0.576-0.031-0.786-0.053c0.059,0.848,0.078,1.582,0.078,2.655V65.521z"/>
		<path fill="#333333" d="M135.064,62.857c0.123-0.42,0.188-0.647,0.306-0.943c-0.364-0.291-0.882-0.471-1.573-0.471
			c-1.137,0-2.15,0.728-2.15,2.049c0,2.174,2.852,1.791,2.852,3.234c0,0.535-0.372,0.979-1.12,0.979
			c-0.774,0-1.214-0.48-1.321-1.034h-0.18c-0.066,0.431-0.154,0.777-0.277,1.215c0.277,0.212,0.852,0.412,1.539,0.412
			c1.523,0,2.537-0.881,2.537-2.163c0-2.174-2.908-1.818-2.908-3.236c0-0.459,0.412-0.862,0.996-0.862s0.957,0.278,1.157,0.823
			h0.144V62.857z"/>
		<path fill="#333333" d="M138.07,63.828c0.717,1.441,1.408,2.898,2.088,4.346c0.059-0.011,0.126-0.021,0.184-0.021
			c0.059,0,0.124,0.011,0.182,0.021c0.688-1.482,1.396-2.959,2.117-4.439h0.018c0.152,1.48,0.314,3.106,0.383,4.439
			c0.268-0.025,0.538-0.049,0.795-0.049c0.262,0,0.52,0.021,0.775,0.049c-0.237-1.351-0.574-4.402-0.824-6.607
			c-0.133,0.026-0.266,0.052-0.398,0.052c-0.138,0-0.277-0.024-0.416-0.052c-0.687,1.522-1.473,3.15-2.228,4.578
			c-0.701-1.351-1.517-3.056-2.214-4.578c-0.124,0.026-0.26,0.052-0.383,0.052c-0.133,0-0.26-0.024-0.395-0.052
			c-0.27,2.205-0.583,4.406-0.984,6.607c0.153-0.025,0.297-0.049,0.451-0.049c0.143,0,0.297,0.021,0.447,0.049
			c0.098-1.447,0.186-2.904,0.385-4.346H138.07z"/>
		<path fill="#333333" d="M145.682,64.871c0,2.393,1.629,3.427,3.647,3.427c2.137,0,3.657-1.541,3.657-3.437
			c0-2.31-1.598-3.418-3.625-3.418C147.137,61.443,145.682,62.982,145.682,64.871z M151.42,64.661c0,2.085-1.006,3.044-2.156,3.044
			c-1.072,0-2.011-0.711-2.011-2.747c0-1.647,0.765-2.97,2.076-2.97C150.564,61.988,151.42,63.003,151.42,64.661z"/>
		<path fill="#333333" d="M162.699,66.986c-0.412,0.431-1.118,0.719-1.733,0.719c-1.104,0-2.268-0.777-2.268-2.747
			c0-2.033,1.155-2.923,2.181-2.923c0.68,0,1.169,0.259,1.646,0.852h0.137c0.025-0.324,0.093-0.658,0.222-0.973
			c-0.442-0.271-1.286-0.471-1.952-0.471c-2.015,0-3.804,1.015-3.804,3.654c0,1.812,1.312,3.199,3.53,3.199
			c0.789,0,1.445-0.15,1.955-0.421c0.027-0.269,0.105-0.549,0.207-0.813L162.699,66.986z"/>
		<path fill="#333333" d="M167.65,68.174c0.287-0.021,0.58-0.049,0.871-0.049c0.287,0,0.572,0.027,0.859,0.049
			c-0.699-1.085-1.425-2.174-2.039-3.257c0.95-0.237,1.483-0.832,1.483-1.762c0-0.564-0.236-0.984-0.621-1.265
			c-0.338-0.236-0.688-0.326-1.657-0.326c-0.65,0-1.062,0.053-1.406,0.053c-0.317,0-0.574-0.031-0.783-0.053
			c0.057,0.848,0.074,1.582,0.074,2.656v1.301c0,1.074-0.019,1.807-0.074,2.651c0.209-0.021,0.466-0.049,0.783-0.049
			s0.574,0.028,0.785,0.049c-0.058-0.846-0.078-1.577-0.078-2.651V65.13h0.088L167.65,68.174z M167.363,63.367
			c0,0.9-0.461,1.371-1.303,1.371c-0.065,0-0.135-0.012-0.213-0.021c0-0.873,0.01-1.732,0.031-2.602
			C166.923,62.115,167.363,62.236,167.363,63.367z"/>
		<path fill="#333333" d="M170.725,65.521c0,1.073-0.022,1.807-0.078,2.651c0.211-0.021,0.468-0.049,0.787-0.049
			c0.313,0,0.57,0.028,0.784,0.049c-0.06-0.846-0.077-1.578-0.077-2.651V64.22c0-1.073,0.019-1.809,0.077-2.655
			c-0.214,0.021-0.471,0.053-0.784,0.053c-0.319,0-0.576-0.031-0.787-0.053c0.056,0.848,0.078,1.582,0.078,2.655V65.521z"/>
		<path fill="#333333" d="M177.241,62.857c0.126-0.42,0.192-0.647,0.308-0.943c-0.365-0.291-0.882-0.471-1.568-0.471
			c-1.144,0-2.156,0.728-2.156,2.049c0,2.174,2.855,1.791,2.855,3.234c0,0.535-0.377,0.979-1.125,0.979
			c-0.771,0-1.214-0.48-1.32-1.034h-0.18c-0.066,0.431-0.154,0.777-0.277,1.215c0.277,0.212,0.851,0.412,1.543,0.412
			c1.521,0,2.535-0.881,2.535-2.163c0-2.174-2.912-1.818-2.912-3.236c0-0.459,0.412-0.862,0.996-0.862
			c0.586,0,0.959,0.278,1.158,0.823h0.144V62.857z"/>
		<path fill="#333333" d="M180.596,65.521c0,1.073-0.021,1.807-0.078,2.651c0.213-0.021,0.471-0.049,0.787-0.049
			c0.315,0,0.572,0.028,0.784,0.049c-0.057-0.846-0.077-1.578-0.077-2.651v-2.396c0-0.361,0-0.705,0.021-0.841
			c0.382,0,1.188,0.058,1.701,0.127c-0.028-0.146-0.047-0.279-0.047-0.425c0-0.144,0.019-0.275,0.047-0.422
			c-0.812,0.026-1.241,0.052-2.43,0.052c-1.189,0-1.619-0.024-2.49-0.052c0.029,0.146,0.047,0.278,0.047,0.422
			c0,0.146-0.018,0.277-0.047,0.425c0.574-0.069,1.377-0.127,1.752-0.127c0.029,0.136,0.029,0.479,0.029,0.841V65.521
			L180.596,65.521z"/>
		<path fill="#333333" d="M185.229,65.521c0,1.073-0.021,1.807-0.076,2.651c0.209-0.021,0.467-0.049,0.785-0.049
			c0.316,0,0.572,0.028,0.789,0.049c-0.062-0.846-0.08-1.578-0.08-2.651V64.22c0-1.073,0.018-1.809,0.08-2.655
			c-0.217,0.021-0.473,0.053-0.789,0.053c-0.318,0-0.576-0.031-0.785-0.053c0.057,0.848,0.076,1.582,0.076,2.655V65.521z"/>
		<path fill="#333333" d="M191.518,61.521c-0.123,0.016-0.235,0.043-0.363,0.043c-0.122,0-0.237-0.027-0.364-0.043
			c-0.823,2.181-2.258,5.59-2.728,6.651c0.182-0.021,0.323-0.049,0.479-0.049c0.152,0,0.297,0.028,0.449,0.049
			c0.185-0.659,0.393-1.312,0.65-1.963c0.334-0.012,0.662-0.021,0.996-0.021c0.414,0,0.814,0.009,1.225,0.021
			c0.242,0.649,0.461,1.312,0.664,1.963c0.267-0.021,0.545-0.049,0.814-0.049c0.266,0,0.534,0.028,0.842,0.049
			C193.452,66.613,192.333,63.702,191.518,61.521z M189.891,65.648c0.279-0.777,0.575-1.535,0.898-2.281
			c0.309,0.746,0.576,1.504,0.855,2.281H189.891z"/>
		<path fill="#333333" d="M195.654,63.475c0,1.952-0.141,4.424-0.189,4.699c0.143-0.025,0.294-0.049,0.438-0.049
			c0.145,0,0.298,0.021,0.453,0.049c-0.029-0.354-0.06-0.89-0.06-2.422c0-0.72,0-1.514,0.019-2.232
			c1.475,1.549,2.873,3.104,4.185,4.654c0.118-0.025,0.241-0.049,0.375-0.049s0.259,0.021,0.394,0.049c0-2.546,0-3.82,0.152-6.607
			c-0.146,0.026-0.287,0.052-0.434,0.052c-0.143,0-0.283-0.024-0.43-0.052c0.065,0.433,0.065,3.037,0.065,4.561
			c-1.405-1.523-2.776-3.037-4.153-4.561c-0.144,0.026-0.289,0.052-0.434,0.052c-0.143,0-0.286-0.024-0.43-0.052
			C195.615,62.025,195.654,62.609,195.654,63.475z"/>
		<path fill="#333333" d="M202.902,64.871c0,2.393,1.63,3.427,3.648,3.427c2.135,0,3.657-1.541,3.657-3.437
			c0-2.31-1.599-3.418-3.631-3.418C204.357,61.443,202.902,62.982,202.902,64.871z M208.637,64.661c0,2.085-1.005,3.044-2.15,3.044
			c-1.071,0-2.016-0.711-2.016-2.747c0-1.647,0.77-2.97,2.081-2.97C207.787,61.988,208.637,63.003,208.637,64.661z"/>
	</g>
	<g>
		<g>
			<path fill="#333333" d="M71.661,57.032c0.547-0.104,1.14-0.104,1.39-0.104c0.492,0,0.891,0.053,1.36,0.104
				c0.425-1.267,1.066-2.531,1.487-3.367c0.969-0.033,1.935-0.054,2.851-0.054c0.893,0,1.733,0.035,2.577,0.054
				c0.274,0.513,0.865,1.592,1.585,3.367c0.769-0.104,1.812-0.104,2.628-0.104c0.769,0,1.561,0.018,2.329,0.104
				c-1.534-2.495-4.386-7.279-6.715-11.999c-0.398,0.07-0.818,0.103-1.213,0.103c-0.423,0-0.87-0.032-1.291-0.103
				C76.94,48.4,73.176,54.827,71.661,57.032z M80.706,52.365c-0.69,0.018-1.386,0.051-2.08,0.051c-0.669,0-1.337-0.016-2.009-0.051
				l2.105-3.743L80.706,52.365z"/>
			<path fill="#333333" d="M104.662,47.803c0.072-0.357,0.245-1.316,0.719-1.964c-1.856-0.616-3.913-0.872-5.97-0.872
				c-5.997,0-9.766,2.579-9.766,6.186c0,3.4,3.42,6.065,9.493,6.065c1.809,0,3.642-0.224,5.3-0.769
				c0.248-0.752,0.498-1.23,0.722-1.622l-0.426-0.173c-1.311,0.769-2.696,1.338-4.657,1.338c-3.841,0-5.919-2.037-5.919-4.908
				c0-2.699,1.832-4.955,5.624-4.955c1.933,0,3.742,0.651,4.338,1.674H104.662z"/>
			<path fill="#333333" d="M107.33,57.032c0.544-0.104,1.141-0.104,1.388-0.104c0.494,0,0.892,0.053,1.361,0.104
				c0.425-1.267,1.069-2.531,1.487-3.367c0.966-0.033,1.936-0.054,2.852-0.054c0.893,0,1.732,0.035,2.577,0.054
				c0.274,0.513,0.864,1.592,1.585,3.367c0.77-0.104,1.812-0.104,2.625-0.104c0.771,0,1.561,0.018,2.332,0.104
				c-1.534-2.495-4.387-7.279-6.715-11.999c-0.398,0.07-0.819,0.103-1.217,0.103c-0.42,0-0.866-0.032-1.287-0.103
				C112.609,48.4,108.844,54.827,107.33,57.032z M116.375,52.365c-0.695,0.018-1.391,0.051-2.081,0.051
				c-0.669,0-1.337-0.016-2.008-0.051l2.104-3.743L116.375,52.365z"/>
			<path fill="#333333" d="M127.125,53.646c0,1.127-0.102,2.256-0.248,3.386c1.162-0.087,2.626-0.104,3.073-0.104
				c0.669,0,3.196,0.104,4.062,0.104c6.268,0,9.291-2.82,9.291-6.152c0-3.795-3.689-5.709-8.423-5.709
				c-1.911,0-3.793,0.104-5.7,0.104c-0.767,0-1.537-0.037-2.304-0.104c0.173,1.095,0.248,2.205,0.248,3.298L127.125,53.646
				L127.125,53.646z M131.238,48.708c0-0.582,0.072-1.912,0.072-2.271c0.297-0.021,0.719-0.035,1.981-0.035
				c1.065,0,2.377,0.016,3.671,0.785c1.605,0.977,1.883,2.633,1.883,3.676c0,0.631-0.152,2.716-1.736,3.896
				c-1.166,0.854-2.801,1.042-4.188,1.042c-0.819,0-1.337-0.051-1.634-0.086c-0.025-0.43-0.049-0.872-0.049-1.298V48.708
				L131.238,48.708z"/>
			<path fill="#333333" d="M147.583,53.611c0,0.94-0.101,2.584-0.323,3.421c1.389-0.071,2.999-0.14,4.586-0.14
				c1.711,0,4.014,0.034,5.6,0.14c-0.074-0.31-0.123-0.601-0.123-0.892c0-0.238,0.049-0.514,0.123-0.801
				c-1.709,0.239-4.334,0.255-5.575,0.255c-0.024-0.237-0.05-0.479-0.05-0.735v-3.397c2.281,0,3.695,0,5.529,0.136
				c-0.053-0.258-0.125-0.531-0.125-0.803c0-0.273,0.049-0.548,0.125-0.822c-1.908,0.188-3.522,0.188-5.529,0.188v-1.744
				c0-0.613,0.025-1.211,0.072-1.827c1.637,0,3.99,0.017,5.629,0.222c-0.103-0.271-0.125-0.562-0.125-0.854
				c0-0.273,0.049-0.53,0.125-0.786c-1.735,0.104-3.024,0.14-4.387,0.14c-1.537,0-3.595-0.072-5.752-0.14
				c0.148,0.718,0.225,1.487,0.225,2.259L147.583,53.611z"/>
			<path fill="#333333" d="M180.111,47.393c-0.102-0.611-0.196-1.572-0.271-2.222c-0.52,0.065-0.895,0.104-1.539,0.104
				c-0.593,0-1.186-0.019-1.781-0.104c-0.248,0.53-0.396,0.854-0.99,1.828c-1.24,2.05-2.578,4.085-3.967,6.104
				c-1.064-1.523-4.164-6.647-4.705-7.933c-0.473,0.037-1.119,0.104-1.637,0.104c-0.496,0-1.314-0.053-1.812-0.104
				c-0.024,0.668-0.124,1.332-0.271,1.979l-1.709,7.865c-0.15,0.698-0.351,1.348-0.572,2.017c0.471-0.054,0.967-0.104,1.39-0.104
				c0.444,0,0.894,0.033,1.335,0.104c0-0.992,0.126-1.915,0.227-2.806c0.199-1.674,0.519-3.365,0.867-5.041
				c1.162,1.744,2.303,3.504,3.418,5.263c0.893,1.422,1.164,2.019,1.412,2.584c0.223-0.038,0.496-0.054,0.917-0.054
				c0.397,0,0.718,0.035,0.894,0.054c0.371-0.702,0.496-0.925,1.463-2.495c1.656-2.684,1.832-2.99,3.541-5.402
				c0.076,0.602,0.521,3.504,0.621,4.172c0.322,2.053,0.371,2.955,0.397,3.727c0.718-0.071,1.288-0.12,2.377-0.12
				c0.817,0,1.461,0.032,2.255,0.12c-0.373-1.335-0.669-2.701-0.891-4.053L180.111,47.393z"/>
			<path fill="#333333" d="M190.785,51.357c0-1.947,0.074-4.238,0.248-6.188c-0.348,0.037-1.24,0.104-2.254,0.104
				c-0.896,0-1.66-0.037-2.329-0.104c0.196,1.693,0.222,3.916,0.222,5.691c0,0.818,0,4.664-0.248,6.17
				c0.768-0.071,1.562-0.104,2.329-0.104c0.817,0,1.487,0.033,2.258,0.104C190.785,55.525,190.785,52.98,190.785,51.357z"/>
			<path fill="#333333" d="M194.312,57.032c0.545-0.104,1.14-0.104,1.388-0.104c0.495,0,0.896,0.053,1.364,0.104
				c0.418-1.267,1.064-2.531,1.486-3.367c0.965-0.033,1.932-0.054,2.85-0.054c0.892,0,1.732,0.035,2.574,0.054
				c0.274,0.513,0.869,1.592,1.588,3.367c0.768-0.104,1.811-0.104,2.627-0.104c0.769,0,1.562,0.018,2.328,0.104
				c-1.535-2.495-4.387-7.279-6.717-11.999c-0.396,0.07-0.816,0.103-1.212,0.103c-0.421,0-0.868-0.032-1.289-0.103
				C199.592,48.4,195.823,54.827,194.312,57.032z M203.357,52.365c-0.692,0.018-1.39,0.051-2.084,0.051
				c-0.668,0-1.338-0.016-2.006-0.051l2.105-3.743L203.357,52.365z"/>
		</g>
		<g>
			<path fill="#333333" d="M73.443,35.903c0,0.751,0,1.981,1.188,3.197c1.087,1.109,3.055,1.416,4.983,1.416
				c1.33,0,2.521-0.189,3.486-0.666c2.563-1.264,2.666-3.332,2.666-5.007c0-1.659,0.079-4.906,0.389-6.372
				c-0.31,0.049-0.778,0.1-1.208,0.1c-0.412,0-0.945-0.033-1.315-0.1c0.164,1.229,0.187,1.656,0.187,3.072v2.053
				c0,1.521-0.022,2.563-0.311,3.4c-0.554,1.62-2.151,2.018-3.219,2.018c-1.23,0-2.357-0.496-2.852-1.265
				c-0.367-0.582-0.571-1.487-0.571-3.437c0-1.47,0.061-4.476,0.267-5.842c-0.554,0.084-1.251,0.1-1.887,0.1
				c-0.554,0-1.191-0.033-1.993-0.1c0.105,0.596,0.189,1.997,0.189,2.971L73.443,35.903L73.443,35.903z"/>
			<path fill="#333333" d="M100.063,36.347c-1.722-1.572-6.132-5.691-8.143-7.875c-0.387,0.049-0.799,0.1-1.208,0.1
				c-0.452,0-0.903-0.051-1.373-0.1c0.143,1.211,0.143,2.065,0.143,5.141c0,2.82,0,3.571-0.309,6.714
				c0.393-0.048,0.658-0.099,1.067-0.099c0.37,0,0.739,0.051,1.108,0.099c-0.083-0.716-0.247-3.021-0.247-3.79v-4.274l5.251,4.922
				c2.194,2.152,2.439,2.395,3.095,3.143c0.369-0.064,0.762-0.1,1.19-0.1c0.412,0,0.78,0.052,1.209,0.1
				c-0.163-1.209-0.163-2.459-0.163-3.688c0-1.899,0.079-6.702,0.37-8.167c-0.37,0.066-0.737,0.1-1.107,0.1
				c-0.33,0-0.821-0.033-1.149-0.1c0.164,0.868,0.266,3.673,0.266,3.996V36.347z"/>
			<path fill="#333333" d="M108.662,34.657c0-1.948,0.062-4.239,0.206-6.186c-0.29,0.031-1.025,0.1-1.866,0.1
				c-0.739,0-1.375-0.033-1.931-0.1c0.164,1.689,0.187,3.912,0.187,5.688c0,0.821,0,4.664-0.206,6.167
				c0.636-0.064,1.293-0.1,1.928-0.1c0.678,0,1.23,0.034,1.864,0.1C108.662,38.823,108.662,36.277,108.662,34.657z"/>
			<path fill="#333333" d="M118.133,36.674c-1.33-2.686-2.479-5.422-3.505-8.202c-0.493,0.049-1.171,0.1-1.946,0.1
				c-0.721,0-1.438-0.033-2.154-0.1c1.109,1.979,1.229,2.254,4.266,8.799c0.473,1.022,0.941,2.065,1.291,3.127
				c0.35-0.071,0.678-0.103,1.005-0.103c0.411,0,0.843,0.03,1.253,0.103c1.6-4.066,3.424-8.083,5.658-11.926
				c-0.246,0.031-0.677,0.1-1.146,0.1c-0.412,0-0.902-0.051-1.334-0.1c-0.41,1.366-0.94,2.696-1.539,4.016L118.133,36.674z"/>
			<path fill="#333333" d="M125.402,36.911c0,0.94-0.084,2.581-0.266,3.415c1.146-0.064,2.479-0.135,3.789-0.135
				c1.417,0,3.323,0.035,4.637,0.135c-0.062-0.303-0.103-0.596-0.103-0.887c0-0.24,0.04-0.513,0.103-0.803
				c-1.418,0.238-3.59,0.258-4.612,0.258c-0.023-0.239-0.043-0.48-0.043-0.735v-3.4c1.887,0,3.058,0,4.573,0.138
				c-0.039-0.259-0.104-0.531-0.104-0.807c0-0.27,0.045-0.544,0.104-0.818c-1.578,0.188-2.912,0.188-4.573,0.188v-1.742
				c0-0.616,0.02-1.214,0.062-1.831c1.354,0,3.301,0.017,4.655,0.224c-0.084-0.272-0.104-0.562-0.104-0.854
				c0-0.275,0.043-0.529,0.104-0.784c-1.435,0.1-2.502,0.133-3.631,0.133c-1.271,0-2.972-0.066-4.759-0.133
				c0.123,0.716,0.186,1.483,0.186,2.254L125.402,36.911z"/>
			<path fill="#333333" d="M146.385,31.509c0-3.037-3.732-3.037-4.472-3.037c-1.269,0-2.562,0.1-3.831,0.1
				c-0.516,0-1.334-0.033-2.236-0.1c0.166,1.005,0.166,2.595,0.166,5.245c0,3.436,0.018,5.04-0.166,6.609
				c0.514-0.049,1.336-0.1,1.866-0.1c0.593,0,1.25,0.034,1.823,0.1c-0.079-0.491-0.079-1.002-0.102-1.518
				c-0.041-1.269-0.062-2.205-0.062-3.812c0-0.053,0-0.102,0.021-0.102c0.039,0,0.062,0.015,0.08,0.033l2.789,3.605
				c0.756,0.957,1.108,1.641,1.19,1.791c0.778-0.064,1.271-0.1,2.153-0.1c0.719,0,1.433,0.019,2.133,0.1l0.06-0.1
				c-0.409-0.271-1.146-1.109-1.474-1.541l-3.182-4.185C144.314,34.383,146.385,33.546,146.385,31.509z M139.412,29.683
				c0.27-0.035,0.516-0.035,0.781-0.035c1.168,0,2.662,0.104,2.662,2.052c0,2.271-2.111,2.271-2.869,2.271
				c-0.248,0-0.451,0-0.614-0.015L139.412,29.683z"/>
			<path fill="#333333" d="M157.281,31.186c0.042-0.427,0.289-1.434,0.678-2.016c-0.802-0.361-1.846-0.822-3.792-0.822
				c-3.099,0-4.983,1.335-4.983,3.692c0,1.882,1.271,2.768,3.137,3.454c2.505,0.905,3.223,1.18,3.223,2.134
				c0,0.872-0.738,1.709-2.464,1.709c-1.229,0-2.788-0.461-3.117-1.999h-0.512c0,0.6-0.187,1.676-0.429,2.357
				c0.653,0.308,1.84,0.838,3.912,0.838c3.549,0,5.455-1.672,5.455-3.895c0-0.667-0.142-1.352-0.613-1.932
				c-0.556-0.702-1.375-1.111-1.971-1.314c-3.035-1.01-3.955-1.317-3.955-2.394c0-1.452,1.905-1.487,2.317-1.487
				c1.063,0,2.274,0.374,2.665,1.673L157.281,31.186L157.281,31.186z"/>
			<path fill="#333333" d="M164.525,34.657c0-1.948,0.062-4.239,0.203-6.186c-0.285,0.031-1.027,0.1-1.863,0.1
				c-0.739,0-1.375-0.033-1.932-0.1c0.164,1.689,0.187,3.912,0.187,5.688c0,0.821,0,4.664-0.206,6.167
				c0.636-0.064,1.293-0.1,1.929-0.1c0.679,0,1.23,0.034,1.863,0.1C164.525,38.823,164.525,36.277,164.525,34.657z"/>
			<path fill="#333333" d="M167.784,36.945c0,1.128-0.082,2.254-0.206,3.381c0.965-0.081,2.171-0.1,2.543-0.1
				c0.554,0,2.645,0.1,3.365,0.1c5.188,0,7.687-2.815,7.687-6.149c0-3.792-3.056-5.705-6.969-5.705c-1.581,0-3.14,0.1-4.722,0.1
				c-0.635,0-1.27-0.033-1.904-0.1c0.145,1.091,0.206,2.201,0.206,3.294V36.945z M171.188,32.007c0-0.582,0.062-1.914,0.062-2.273
				c0.243-0.018,0.593-0.033,1.639-0.033c0.881,0,1.971,0.016,3.036,0.784c1.333,0.976,1.56,2.635,1.56,3.675
				c0,0.633-0.125,2.718-1.438,3.896c-0.961,0.855-2.315,1.043-3.463,1.043c-0.677,0-1.106-0.052-1.354-0.086
				c-0.021-0.427-0.039-0.869-0.039-1.298v-5.709H171.188z"/>
			<path fill="#333333" d="M181.199,40.326c0.451-0.1,0.943-0.1,1.148-0.1c0.409,0,0.737,0.051,1.127,0.1
				c0.35-1.262,0.881-2.525,1.23-3.362c0.799-0.034,1.602-0.053,2.359-0.053c0.736,0,1.435,0.034,2.135,0.053
				c0.224,0.511,0.715,1.588,1.311,3.362c0.635-0.1,1.496-0.1,2.174-0.1c0.637,0,1.293,0.019,1.926,0.1
				c-1.271-2.492-3.625-7.276-5.557-11.992c-0.326,0.066-0.677,0.103-1.005,0.103c-0.348,0-0.718-0.036-1.067-0.103
				C185.568,31.699,182.452,38.126,181.199,40.326z M188.684,35.664c-0.572,0.016-1.146,0.051-1.72,0.051
				c-0.558,0-1.106-0.015-1.662-0.051l1.742-3.743L188.684,35.664z"/>
			<path fill="#333333" d="M196.402,36.945c0,1.128-0.084,2.254-0.204,3.381c0.963-0.081,2.171-0.1,2.543-0.1
				c0.554,0,2.644,0.1,3.362,0.1c5.188,0,7.688-2.815,7.688-6.149c0-3.792-3.056-5.705-6.974-5.705c-1.576,0-3.135,0.1-4.717,0.1
				c-0.635,0-1.271-0.033-1.904-0.1c0.144,1.091,0.205,2.201,0.205,3.294V36.945L196.402,36.945z M199.809,32.007
				c0-0.582,0.061-1.914,0.061-2.273c0.245-0.018,0.596-0.033,1.641-0.033c0.881,0,1.971,0.016,3.037,0.784
				c1.331,0.976,1.555,2.635,1.555,3.675c0,0.633-0.119,2.718-1.435,3.896c-0.961,0.855-2.315,1.043-3.463,1.043
				c-0.677,0-1.106-0.052-1.354-0.086c-0.021-0.427-0.039-0.869-0.039-1.298v-5.709H199.809z"/>
		</g>
	</g>
</g>
</svg>
