<?xml version="1.0" encoding="utf-8"?>
<!-- Generator: Adobe Illustrator 22.0.0, SVG Export Plug-In . SVG Version: 6.00 Build 0)  -->
<svg version="1.1" id="Capa_1" xmlns="http://www.w3.org/2000/svg" xmlns:xlink="http://www.w3.org/1999/xlink" x="0px" y="0px"
	 viewBox="0 0 149.6 189" style="enable-background:new 0 0 149.6 189;" xml:space="preserve">
<style type="text/css">
	.st0{fill:#FFFFFF;}
	.st1{fill:#FFFFFF;stroke:#FFFFFF;stroke-width:0.25;stroke-miterlimit:10;}
</style>
<g id="Layer_1">
	<path class="st0" d="M149.6,189V0H7.9v19.7H0v7.9h7.9v15.8H0v7.9h7.9v15.8H0v7.9h7.9v15.8H0v7.9h7.9v15.8H0v7.9h7.9v15.8H0v7.9h7.9
		v15.8H0v7.9h7.9V189H149.6z M15.8,145.7h7.9v-7.9h-7.9v-15.8h7.9v-7.9h-7.9V98.4h7.9v-7.9h-7.9V74.8h7.9v-7.9h-7.9V51.2h7.9v-7.9
		h-7.9V27.6h7.9v-7.9h-7.9V7.9h126v173.3h-126v-11.8h7.9v-7.9h-7.9V145.7z"/>
	<path class="st1" d="M78.8,20.1H39.4v55.1h39.4V20.1z M74.8,70.1H43.3V24.8h31.5V70.1z"/>
	<rect x="39.4" y="82.7" class="st0" width="80.7" height="7.9"/>
	<rect x="39.4" y="98.8" class="st0" width="55.1" height="7.9"/>
	<rect x="63" y="115.4" class="st0" width="57.1" height="7.9"/>
	<rect x="39.4" y="131.5" class="st0" width="39.4" height="7.9"/>
	<rect x="39.4" y="145.7" class="st0" width="80.7" height="7.9"/>
	<rect x="38.6" y="159.5" class="st0" width="81.9" height="7.9"/>
	<rect x="98.4" y="98.8" class="st0" width="21.7" height="7.9"/>
	<rect x="39.4" y="115.4" class="st0" width="19.7" height="7.9"/>
	<rect x="83.9" y="131.5" class="st0" width="36.2" height="7.9"/>
	<rect x="85.8" y="67.3" class="st0" width="34.3" height="7.9"/>
	<rect x="85.8" y="51.2" class="st0" width="34.3" height="7.9"/>
	<rect x="85.8" y="20.1" class="st0" width="34.3" height="7.9"/>
	<rect x="85.8" y="34.7" class="st0" width="34.3" height="7.9"/>
</g>
</svg>
