<?xml version="1.0" encoding="utf-8"?>
<!-- Generator: Adobe Illustrator 22.0.0, SVG Export Plug-In . SVG Version: 6.00 Build 0)  -->
<svg version="1.1" id="Capa_1" xmlns="http://www.w3.org/2000/svg" xmlns:xlink="http://www.w3.org/1999/xlink" x="0px" y="0px"
	 viewBox="0 0 50 50" style="enable-background:new 0 0 50 50;" xml:space="preserve">
<style type="text/css">
	.st0{stroke:#000000;stroke-width:0.25;stroke-miterlimit:10;}
</style>
<g id="Layer_1">
	<path d="M44,49V1H8v5H6v2h2v4H6v2h2v4H6v2h2v4H6v2h2v4H6v2h2v4H6v2h2v4H6v2h2v5H44z M10,38h2v-2h-2v-4h2v-2h-2v-4h2v-2h-2v-4h2v-2
		h-2v-4h2v-2h-2V8h2V6h-2V3h32v44H10v-3h2v-2h-2V38z"/>
	<path class="st0" d="M26,6.1H16v14h10V6.1z M25,18.8h-8V7.3h8V18.8z"/>
	<rect x="16" y="22" width="20.5" height="2"/>
	<rect x="16" y="26.1" width="14" height="2"/>
	<rect x="22" y="30.3" width="14.5" height="2"/>
	<rect x="16" y="34.4" width="10" height="2"/>
	<rect x="16" y="38" width="20.5" height="2"/>
	<rect x="15.8" y="41.5" width="20.8" height="2"/>
	<rect x="31" y="26.1" width="5.5" height="2"/>
	<rect x="16" y="30.3" width="5" height="2"/>
	<rect x="27.3" y="34.4" width="9.2" height="2"/>
	<rect x="27.8" y="18.1" width="8.7" height="2"/>
	<rect x="27.8" y="14" width="8.7" height="2"/>
	<rect x="27.8" y="6.1" width="8.7" height="2"/>
	<rect x="27.8" y="9.8" width="8.7" height="2"/>
</g>
</svg>
