<?xml version="1.0" encoding="utf-8"?>
<!-- Generator: Adobe Illustrator 22.0.0, SVG Export Plug-In . SVG Version: 6.00 Build 0)  -->
<svg version="1.1" id="Capa_1" xmlns="http://www.w3.org/2000/svg" xmlns:xlink="http://www.w3.org/1999/xlink" x="0px" y="0px"
	 viewBox="0 0 298 298" style="enable-background:new 0 0 298 298;" xml:space="preserve">
<style type="text/css">
	.st0{fill:#FFFFFF;}
</style>
<g id="Layer_1">
	<path class="st0" d="M86.9,298h37.3h12.4h62.1h12.4H298V24.8h-86.9V0h-86.9v74.5H86.9V0H0v298h74.5H86.9z M285.6,37.3v248.3h-74.5
		V37.3H285.6z M136.6,12.4h62.1v12.4v260.8h-62.1V74.5V12.4z M124.2,86.9v198.7H86.9V86.9H124.2z M12.4,285.6V12.4h62.1v62.1v211.1
		H12.4z"/>
	<rect x="24.8" y="260.8" class="st0" width="37.3" height="12.4"/>
	<rect x="24.8" y="229.7" class="st0" width="37.3" height="12.4"/>
	<rect x="24.8" y="198.7" class="st0" width="37.3" height="12.4"/>
	<rect x="223.5" y="260.8" class="st0" width="49.7" height="12.4"/>
	<rect x="223.5" y="229.7" class="st0" width="49.7" height="12.4"/>
	<rect x="223.5" y="198.7" class="st0" width="49.7" height="12.4"/>
	<rect x="149" y="186.3" class="st0" width="37.3" height="12.4"/>
	<rect x="149" y="211.1" class="st0" width="37.3" height="12.4"/>
	<rect x="149" y="31" class="st0" width="37.3" height="12.4"/>
	<rect x="149" y="55.9" class="st0" width="37.3" height="12.4"/>
	<rect x="149" y="235.9" class="st0" width="37.3" height="12.4"/>
	<rect x="149" y="260.8" class="st0" width="37.3" height="12.4"/>
	<rect x="37.3" y="37.3" class="st0" width="12.4" height="12.4"/>
	<rect x="242.1" y="62.1" class="st0" width="12.4" height="12.4"/>
</g>
</svg>
