<?xml version="1.0" encoding="utf-8"?>
<!-- Generator: Adobe Illustrator 22.0.0, SVG Export Plug-In . SVG Version: 6.00 Build 0)  -->
<svg version="1.1" id="Layer_1" xmlns="http://www.w3.org/2000/svg" xmlns:xlink="http://www.w3.org/1999/xlink" x="0px" y="0px"
	 viewBox="0 0 512 399.7" style="enable-background:new 0 0 512 399.7;" xml:space="preserve">
<style type="text/css">
	.st0{fill:#FFFFFF;}
	.st1{fill:#010101;}
</style>
<g>
	<path d="M499.9,0.6h-146c-48.4,0-82,31.4-97.9,50.3c-15.9-18.9-49.5-50.3-97.9-50.3h-146C5.4,0.6,0,6,0,12.7v166.7
		c0,6.7,5.4,12.1,12.1,12.1s12.1-5.4,12.1-12.1V24.9h133.8c47,0,78.1,39.3,85.7,50v247c-23.9-19.6-63.6-33.2-118.5-40.6
		c-41.9-5.7-81.6-6.3-101.1-6.1V237c0-6.7-5.4-12.1-12.1-12.1S0,230.3,0,237v50.5v70.6c0,6.7,5.4,12.1,12.1,12.1H256c0,0,0,0,0,0
		c0,0,0,0,0,0c0,0,0,0,0,0c0,0,0,0,0,0h243.8c6.7,0,12.1-5.4,12.1-12.1v-70.6V12.7C512,6,506.6,0.6,499.9,0.6z M353.9,24.9h133.8
		v250.3c-1.5,0-3.2,0-4.9,0c-26.6,0-78.3,1.5-126.6,11.2c-39.3,7.9-68.7,19.8-88,35.6V74.8C275.7,64.1,306.7,24.9,353.9,24.9z
		 M24.3,299.4c18.8-0.1,57.6,0.4,97.9,5.9c54.9,7.4,93.5,21.6,112,40.7H24.3V299.4z M277.7,346c32.4-34,123.4-46.6,205.1-46.6
		c1.8,0,3.4,0,4.9,0V346L277.7,346L277.7,346z"/>
	<path d="M331.7,81h101.9c8,0,14.4-5.4,14.4-12.1s-6.5-12.1-14.4-12.1H331.7c-8,0-14.4,5.4-14.4,12.1S323.8,81,331.7,81z"/>
	<path d="M331.7,120.7h101.9c8,0,14.4-5.4,14.4-12.1c0-6.7-6.5-12.1-14.4-12.1H331.7c-8,0-14.4,5.4-14.4,12.1
		C317.3,115.3,323.8,120.7,331.7,120.7z"/>
	<path d="M331.7,160.5h101.9c8,0,14.4-5.4,14.4-12.1c0-6.7-6.5-12.1-14.4-12.1H331.7c-8,0-14.4,5.4-14.4,12.1
		C317.3,155.1,323.8,160.5,331.7,160.5z"/>
	<path d="M331.7,200.3h101.9c8,0,14.4-5.4,14.4-12.1c0-6.7-6.5-12.1-14.4-12.1H331.7c-8,0-14.4,5.4-14.4,12.1
		C317.3,194.8,323.8,200.3,331.7,200.3z"/>
	<path d="M331.7,240.1h101.9c8,0,14.4-5.4,14.4-12.1s-6.5-12.1-14.4-12.1H331.7c-8,0-14.4,5.4-14.4,12.1S323.8,240.1,331.7,240.1z"
		/>
	<path d="M72.2,81h101.9c8,0,14.4-5.4,14.4-12.1s-6.5-12.1-14.4-12.1H72.2c-8,0-14.4,5.4-14.4,12.1S64.3,81,72.2,81z"/>
	<path d="M72.2,120.7h101.9c8,0,14.4-5.4,14.4-12.1c0-6.7-6.5-12.1-14.4-12.1H72.2c-8,0-14.4,5.4-14.4,12.1
		C57.8,115.3,64.3,120.7,72.2,120.7z"/>
	<path d="M72.2,160.5h101.9c8,0,14.4-5.4,14.4-12.1c0-6.7-6.5-12.1-14.4-12.1H72.2c-8,0-14.4,5.4-14.4,12.1
		C57.8,155.1,64.3,160.5,72.2,160.5z"/>
	<path d="M72.2,200.3h101.9c8,0,14.4-5.4,14.4-12.1c0-6.7-6.5-12.1-14.4-12.1H72.2c-8,0-14.4,5.4-14.4,12.1
		C57.8,194.8,64.3,200.3,72.2,200.3z"/>
	<path d="M72.2,240.1h101.9c8,0,14.4-5.4,14.4-12.1s-6.5-12.1-14.4-12.1H72.2c-8,0-14.4,5.4-14.4,12.1S64.3,240.1,72.2,240.1z"/>
</g>
<g>
	<circle class="st0" cx="360.7" cy="253.1" r="72.4"/>
	<path class="st1" d="M331.5,248.3c2.7-11.5,12.4-20.6,23.1-23.3c5-0.9,8.8-5.3,8.8-10.5c0-5.8-4.8-10.6-10.6-10.6
		c-7.7,0-19.3,6.4-28,15.2c-8.5,8.6-14.5,18.9-14.5,27.3c0,5.8,4.9,10.6,10.8,10.6C326.2,257.1,330.6,253.3,331.5,248.3z
		 M470.9,394.5c8.2,8.2,21.6,8.2,29.9,0c8.2-8.2,8.2-21.6,0-29.8l-61.1-61.1c8.9-14.3,14-31.1,14-49.1c0-51.4-41.6-93.1-93.1-93.1
		c-51.4,0-93.1,41.6-93.1,93.1c0,51.4,41.6,93.1,93.1,93.1c18,0,34.9-5.2,49.1-14L470.9,394.5z M360.7,320.9
		c-36.7,0-66.5-29.8-66.5-66.5s29.8-66.5,66.5-66.5c36.7,0,66.5,29.8,66.5,66.5S397.4,320.9,360.7,320.9z"/>
</g>
</svg>
