<?xml version="1.0" encoding="utf-8"?>
<!-- Generator: Adobe Illustrator 22.0.0, SVG Export Plug-In . SVG Version: 6.00 Build 0)  -->
<svg version="1.1"
	 id="GUIDE" xmlns:cc="http://creativecommons.org/ns#" xmlns:dc="http://purl.org/dc/elements/1.1/" xmlns:inkscape="http://www.inkscape.org/namespaces/inkscape" xmlns:rdf="http://www.w3.org/1999/02/22-rdf-syntax-ns#" xmlns:sodipodi="http://sodipodi.sourceforge.net/DTD/sodipodi-0.dtd" xmlns:svg="http://www.w3.org/2000/svg"
	 xmlns="http://www.w3.org/2000/svg" xmlns:xlink="http://www.w3.org/1999/xlink" x="0px" y="0px" viewBox="0 0 788 542"
	 style="enable-background:new 0 0 788 542;" xml:space="preserve">
<g>
	<path d="M722.1,159.4L382.1,13c-5-2.2-10.8-2.2-15.8,0L23.5,160.3c-7.3,3.2-12.1,10.4-12.1,18.4s4.8,15.2,12.1,18.4l342.7,147.4
		c2.5,1.1,5.2,1.6,7.9,1.6s5.4-0.5,7.9-1.6l188.6-81.1l0,138.4c-110.1,101.8-283,101.8-393.1,0l-2-141.5c0-11-6.3-12-17.4-12l0,0
		c-11,0-19-13.5-19-2.5l-1.6,164.5c0,5.4,2.2,10.5,6,14.3c61.9,60.7,143.8,94.1,230.5,94.1c86.7,0,168.6-33.4,230.5-94.1
		c3.8-3.8,6-8.9,6-14.3l0-164.2l86.2-37.1v84.8c-16.3,7.6-27.6,24.1-27.6,43.2c0,19.6,14.6,71.2,47.6,71.2c33,0,47.6-51.6,47.6-71.2
		c0-19.1-11.3-35.6-27.6-43.2V178.7c0-11-9-20-20-20H374.2c-11,0-20,9-20,20s9,20,20,20h245.6L374.2,304.3L82.1,178.7L374.2,53.1
		l274.5,117.6 M716.9,362.9c-3.9-7.6-7.6-19.4-7.6-25.8c0-4.2,3.4-7.6,7.6-7.6s7.6,3.4,7.6,7.6C724.6,343.5,720.8,355.3,716.9,362.9
		z M175.6,269"/>
</g>
</svg>
